<svg height="22" width="20" xmlns="http://www.w3.org/2000/svg" class="ng-star-inserted"><g class="fill-color" fill="none" fill-rule="evenodd"><path fill="#677791" fill-rule="nonzero" d="M10 1L1.292 6.063v9.92L10 20.858l9.039-4.875-.445-9.92z"/><g stroke="#F5F5F5" stroke-linecap="round"><path d="M14.5 8.398L5.5 3.5M19 14.998v-8a2 2 0 00-1-1.73l-7-4a2 2 0 00-2 0l-7 4a2 2 0 00-1 1.73v8a2 2 0 001 1.73l7 4a2 2 0 002 0l7-4a2 2 0 001-1.73z" stroke-linejoin="round"/><path d="M1.406 6.078A3394.13 3394.13 0 0010 11.008l8.5-4.93" stroke-linejoin="round"/><path d="M10 20.828v-9.83"/></g></g></svg>