<svg height="18" width="16" xmlns="http://www.w3.org/2000/svg" class="ng-star-inserted"><g fill="none" fill-rule="evenodd"><path d="M-3-1h22v22H-3z"/><path class="fill-color" d="M13.989 1.86h-3.576a2.534 2.534 0 00-4.825 0H2.011A1.741 1.741 0 00.3 3.62v12.32A1.741 1.741 0 002.01 17.7h11.978a1.741 1.741 0 001.711-1.76V3.62a1.741 1.741 0 00-1.711-1.76zM8 1.86a.88.88 0 11-.856.88A.871.871 0 018 1.86zm-2.319 11.7l-2.215-2.284a.894.894 0 010-1.241.835.835 0 011.206 0l1.617 1.655 5.031-5.175a.835.835 0 011.206 0 .894.894 0 010 1.241l-5.638 5.8a.835.835 0 01-1.206 0l-.001.004z" fill="#677791" fill-rule="nonzero"/></g></svg>