<svg height="18" width="18" xmlns="http://www.w3.org/2000/svg" class="ng-star-inserted"><g fill="none" fill-rule="evenodd"><path d="M-1-2h22v22H-1z"/><path class="fill-color" d="M5.38 14.279a1.76 1.76 0 100 3.52 1.76 1.76 0 000-3.52zM.1 1.079a.883.883 0 00.88.88h.88l3.168 6.679-1.188 2.147a1.763 1.763 0 001.54 2.614h9.681a.88.88 0 100-1.76H5.38l.968-1.76h6.557c.64.002 1.23-.345 1.54-.906L17.6 3.261a.877.877 0 00-.766-1.3H3.805L3.215.699a.874.874 0 00-.792-.5H.98a.883.883 0 00-.88.88zm14.081 13.2a1.76 1.76 0 100 3.52 1.76 1.76 0 000-3.52z" fill="#677791" fill-rule="nonzero"/></g></svg>