<svg xmlns:xlink="http://www.w3.org/1999/xlink" height="12" width="21" xmlns="http://www.w3.org/2000/svg" class="ng-star-inserted"><defs><path d="M9.88 1.702c.952-.003 1.9.129 2.815.392a.73.73 0 01.571.8.75.75 0 01-.916.564 8.916 8.916 0 00-1.773-.332H9.88a8.391 8.391 0 00-8.438 7.548.724.724 0 01-1.441 0A9.8 9.8 0 019.88 1.702m9.613 7.342c.136.524.225 1.06.266 1.6a.724.724 0 01-1.441 0 5.312 5.312 0 00-.3-1.6 8.092 8.092 0 00-1.387-2.655.7.7 0 01.139-.943.75.75 0 01.929 0 9.56 9.56 0 011.792 3.6M18.243 1.08a.292.292 0 010 .425l-7.037 8.743a1.772 1.772 0 01-2.576.08 1.66 1.66 0 01.193-2.3l9.022-6.951a.312.312 0 01.412 0" id="a"/></defs><use xlink:href="#a" class="fill-color" fill="#677791" transform="translate(.276 -.146)" fill-rule="evenodd"/></svg>