<svg height="20" width="18" xmlns="http://www.w3.org/2000/svg" class="ng-star-inserted"><g fill="none" fill-rule="evenodd"><path d="M-3-1h24v24H-3z"/><path class="fill-color" d="M15.533 2.119h-3.9a2.764 2.764 0 00-5.264 0h-3.9a1.9 1.9 0 00-1.87 1.92v13.44a1.9 1.9 0 001.868 1.92h13.066a1.9 1.9 0 001.867-1.92V4.039a1.9 1.9 0 00-1.867-1.92zM9 2.119a.96.96 0 11-.933.96.95.95 0 01.933-.96z" fill="#677791" fill-rule="nonzero"/><path d="M7 7h7M7 11h7M7 15h7M4 7h0M4 11h0M4 15h0" stroke="#F5F5F5" stroke-linecap="round" stroke-linejoin="round"/></g></svg>